<svg id="SvgjsSvg1014" xmlns="http://www.w3.org/2000/svg" version="1.1" xmlns:xlink="http://www.w3.org/1999/xlink" xmlns:svgjs="http://svgjs.com/svgjs" width="201" height="201"><defs id="SvgjsDefs1015"><linearGradient id="SvgjsLinearGradient1017" gradientUnits="userSpaceOnUse" x1="479" y1="3295.998695652174" x2="479" y2="3495.998695652174"><stop id="SvgjsStop1018" stop-opacity="1" stop-color="#9d3dcf" offset="0"></stop><stop id="SvgjsStop1019" stop-opacity="1" stop-color="#4c6fff" offset="1"></stop></linearGradient></defs><path id="SvgjsPath1016" d="M398.06 3347.84L479.11 3388.23L560.1700000000001 3347.83L479.11000000000007 3307.43ZM398.05 3441.79L479.1 3482.18L560.1600000000001 3441.7799999999997L526.21 3424.87L481.74 3447.0499999999997C480.08 3447.87 478.13 3447.87 476.48 3447.0499999999997L432 3424.87ZM398.07 3394.81L479.1 3435.21L560.1600000000001 3394.81L526.21 3377.9L481.74 3400.08C480.08 3400.9 478.13 3400.9 476.48 3400.08L432 3377.9ZM478.89 3295C479.88 3294.98 480.86 3295.19 481.74 3295.63L575.96 3342.6C577.95 3343.6 579.21 3345.63 579.21 3347.85C579.21 3350.0699999999997 577.95 3352.1 575.96 3353.1L539.39 3371.3399999999997L575.96 3389.5799999999995C577.95 3390.5699999999993 579.22 3392.6099999999997 579.22 3394.8299999999995C579.22 3397.0599999999995 577.95 3399.0899999999997 575.96 3400.0899999999997L539.39 3418.3299999999995L575.96 3436.5499999999993C577.95 3437.5499999999993 579.22 3439.5799999999995 579.22 3441.8099999999995C579.22 3444.0299999999993 577.95 3446.0699999999997 575.96 3447.0599999999995L481.74 3494.0399999999995C480.08 3494.8599999999997 478.13 3494.8599999999997 476.48 3494.0399999999995L382.26 3447.0599999999995C380.26 3446.0699999999997 379 3444.0299999999993 379 3441.8099999999995C379 3439.5799999999995 380.26 3437.5499999999993 382.26 3436.5499999999993L418.83 3418.3299999999995L382.26 3400.0899999999997C380.26 3399.0899999999997 379 3397.0599999999995 379 3394.8299999999995C379 3392.6099999999997 380.26 3390.5699999999993 382.26 3389.5799999999995L418.83 3371.3399999999997L382.26 3353.1C380.27 3352.1 379.01 3350.0699999999997 379.01 3347.85C379.01 3345.63 380.27 3343.6 382.26 3342.6L476.48 3295.63C477.23 3295.25 478.05 3295.04 478.89000000000004 3295Z " fill="url(#SvgjsLinearGradient1017)" transform="matrix(1,0,0,1,-379,-3294)"></path></svg>