<svg id="Layer_1" data-name="Layer 1" xmlns="http://www.w3.org/2000/svg" viewBox="0 0 70.624 52.881"><defs><style>.cls-1{fill-rule:evenodd;}</style></defs><title>2</title><path class="cls-1" d="M5.253,34.174a29.4,29.4,0,0,1,53.688-8.312A29.208,29.208,0,0,1,62.382,48.1l2.914.711A32.4,32.4,0,0,0,16.988,13.448,32.191,32.191,0,0,0,2.335,33.463Z"/><path class="cls-1" d="M6.648,36.3c0,4.434-6.648,4.434-6.648,0s6.648-4.433,6.648,0"/><path class="cls-1" d="M66.265,49.553c0,4.438-6.656,4.438-6.656,0s6.656-4.437,6.656,0"/><path class="cls-1" d="M45.511,10.588a4.164,4.164,0,1,1-4.164-4.16A4.165,4.165,0,0,1,45.511,10.588Z"/><line x1="14.597" y1="1.745" x2="68.285" y2="17.6"/><rect x="40.687" y="-18.32" width="1.499" height="55.984" transform="translate(20.425 46.673) rotate(-73.547)"/><path class="cls-1" d="M16.671,1.846a1.845,1.845,0,1,1-3.691,0,1.845,1.845,0,1,1,3.691,0"/><path class="cls-1" d="M70.624,17.987a1.845,1.845,0,1,1-3.691,0,1.845,1.845,0,1,1,3.691,0"/></svg>