<svg id="SvgjsSvg1049" xmlns="http://www.w3.org/2000/svg" version="1.1" xmlns:xlink="http://www.w3.org/1999/xlink" xmlns:svgjs="http://svgjs.com/svgjs" width="51" height="51"><defs id="SvgjsDefs1050"></defs><path id="SvgjsPath1051" d="M1227.79 4081.94L1222.06 4081.94L1212.26 4071.39C1211.84 4070.93 1211.15 4070.87 1210.66 4071.24L1196.4 4081.9399999999996L1192.48 4081.9399999999996L1189.92 4074.9599999999996C1189.74 4074.4799999999996 1189.29 4074.1599999999994 1188.78 4074.1599999999994L1179 4074.1599999999994L1179 4076.6199999999994L1187.94 4076.6199999999994L1196.75 4100.589999999999C1196.93 4101.069999999999 1197.38 4101.389999999999 1197.89 4101.389999999999L1223.93 4101.389999999999L1220.78 4107.869999999999L1190.96 4107.869999999999L1190.96 4110.329999999999L1221.53 4110.329999999999C1222 4110.329999999999 1222.42 4110.069999999999 1222.62 4109.649999999999L1226.9699999999998 4100.699999999999C1227.1599999999999 4100.319999999999 1227.1299999999999 4099.869999999999 1226.9099999999999 4099.509999999999C1226.6899999999998 4099.15 1226.3 4098.929999999999 1225.8799999999999 4098.929999999999L1224.7099999999998 4098.929999999999L1228.9599999999998 4083.4999999999995C1229.0599999999997 4083.1199999999994 1228.9799999999998 4082.7299999999996 1228.7499999999998 4082.4199999999996C1228.5199999999998 4082.1099999999997 1228.1599999999999 4081.9399999999996 1227.7899999999997 4081.9399999999996ZM1223.63 4093.7L1196.8100000000002 4093.7L1195.7000000000003 4090.6699999999996L1224.4600000000003 4090.6699999999996ZM1222.19 4098.93L1198.73 4098.93L1197.71 4096.16L1222.95 4096.16ZM1225.14 4088.21L1194.7900000000002 4088.21L1193.39 4084.39L1226.19 4084.39Z " fill="#4c6fff" fill-opacity="1" transform="matrix(1,0,0,1,-1179,-4070)"></path><path id="SvgjsPath1052" d="M1197.33 4110C1194.3899999999999 4110 1192 4112.39 1192 4115.33C1192 4118.2699999999995 1194.39 4120.67 1197.33 4120.67C1200.27 4120.67 1202.6699999999998 4118.27 1202.6699999999998 4115.33C1202.6699999999998 4112.39 1200.2699999999998 4110 1197.33 4110Z " fill="#4c6fff" fill-opacity="1" transform="matrix(1,0,0,1,-1179,-4070)"></path><path id="SvgjsPath1053" d="M1215.33 4110C1212.3899999999999 4110 1210 4112.39 1210 4115.33C1210 4118.2699999999995 1212.4 4120.67 1215.33 4120.67C1218.27 4120.67 1220.6699999999998 4118.27 1220.6699999999998 4115.33C1220.6699999999998 4112.39 1218.2799999999997 4110 1215.33 4110Z " fill="#4c6fff" fill-opacity="1" transform="matrix(1,0,0,1,-1179,-4070)"></path></svg>