<svg id="SvgjsSvg1033" xmlns="http://www.w3.org/2000/svg" version="1.1" xmlns:xlink="http://www.w3.org/1999/xlink" xmlns:svgjs="http://svgjs.com/svgjs" width="49" height="51"><defs id="SvgjsDefs1034"></defs><path id="SvgjsPath1035" d="M759 4072C759 4071.55 758.46 4071.04 758 4071C755.34 4071.03 753.16 4071.03 751 4071C749.9 4071.04 749.46 4071.4 749 4073C749.45 4073.19 749.46 4073.72 749 4074C739.76 4074.42 730.2 4074.42 721 4074C720.53 4073.58 720.55 4073.07 721 4072C720.51 4071.52 719.93 4071 719 4071C716.89 4070.99 714.68 4071.02 712 4071C711.49 4071.03 711.01 4071.52 711 4073C711 4074.76 711 4076.99 711 4079C711.01 4080.2 711.46 4080.65 712 4081C714.63 4080.68 716.83 4080.68 719 4081C720.13 4080.66 720.53 4080.09 721 4079C720.56 4078.3 720.55 4077.53 721 4077C725.08 4076.82 729.44 4076.82 734 4077C733.82 4077.53 722.39 4101.46 722 4102C721.75 4102.64 721.81 4103.18 722 4103C722.35 4103.88 722.82 4104.31 723 4105C724.74 4105.93 725.71 4107.55 727 4109C727.09 4110.16 727.34 4111.28 728 4112C727.39 4112.54 727.07 4112.61 727 4113C725.1 4112.69 724.83 4112.96 725 4115C724.83 4116.16 724.83 4117.74 725 4119C724.83 4120.58 725.25 4121 726 4121C732.18 4121 737.84 4121 744 4121C744.81 4121 745.19 4120.62 745 4119C745.19 4117.64 745.2 4115.93 745 4114C745.19 4113.13 744.71 4112.68 744 4113C743.18 4112.62 742.74 4112.54 742 4112C742.83 4111.02 743.35 4109.72 744 4108C744.4 4107.63 744.89 4106.78 746 4106C746.22 4105.17 747.11 4104.44 748 4104C748.08 4103.33 748.25 4102.61 748 4102C747.41 4101 736.24 4077.51 736 4077C740.64 4076.81 744.99 4076.81 749 4077C749.45 4077.65 749.42 4078.47 749 4079C749.49 4080.02 749.91 4080.58 751 4081C753.07 4080.59 755.38 4080.62 758 4081C758.53 4080.61 758.97 4080.12 759 4079C759.01 4077.03 759 4074.77 759 4072C759 4072.49 759 4072.49 759 4072ZM736 4084C739.63 4090.25 742.81 4096.24 746 4102C744.67 4103.68 743.14 4105.01 742 4107C741.6 4108.39 740.59 4109.72 741 4111C740.5 4111.62 740.1 4111.95 740 4112C736.63 4112.01 733.42 4112 730 4112C729.51 4112 729.49 4111.55 729 4111C729.15 4109.17 728.24 4107.58 727 4106C726.29 4104.52 724.91 4103.5 724 4102C727.16 4096.38 730.21 4090.24 734 4084C733.52 4088.1 733.52 4092.11 734 4096C731.5 4096.47 730.8 4098.07 731 4101C731.26 4101.21 731.74 4103.61 735 4104C737.99 4103.61 738.59 4101.24 739 4101C739.05 4098 738.22 4096.41 736 4096C736.26 4091.96 736.08 4088.07 736 4084C736.33 4084 736.33 4084 736 4084ZM743 4119C737.67 4119 732.05 4119 727 4119C727 4117.5 727 4116.17 727 4115C732.05 4115 737.52 4115 743 4115C743 4116.17 743 4117.5 743 4119ZM713 4078C713 4076.34 713 4074.66 713 4073C714.57 4073 716.14 4073 718 4073C718 4074.66 718 4076.34 718 4078C716.28 4078 714.57 4078 713 4078ZM735 4101C733.89 4101 733 4100.1 733 4099C733 4097.9 733.9 4097 735 4097C736.11 4097.01 737 4097.9 737 4099C737 4100.1 736.1 4101 735 4101ZM752 4078C752 4076.48 752 4074.66 752 4073C753.71 4073 755.28 4073 757 4073C757 4074.66 757 4076.34 757 4078C755.28 4078 753.71 4078 752 4078Z " fill="#4c6fff" fill-opacity="1" transform="matrix(1,0,0,1,-711,-4070)"></path></svg>