<svg id="SvgjsSvg1036" xmlns="http://www.w3.org/2000/svg" version="1.1" xmlns:xlink="http://www.w3.org/1999/xlink" xmlns:svgjs="http://svgjs.com/svgjs" width="51" height="50"><defs id="SvgjsDefs1037"></defs><path id="SvgjsPath1038" d="M285.64 4095.82C285.64 4104 279 4110.64 270.82 4110.64C262.63 4110.64 256 4104 256 4095.82C256 4087.63 262.63 4081 270.82 4081C279 4081 285.64 4087.63 285.64 4095.82 " fill="#4c6fff" fill-opacity="1" transform="matrix(1,0,0,1,-245,-4071)"></path><path id="SvgjsPath1039" d="M292.49 4078.75C292.49 4081.92 289.92 4084.49 286.75 4084.49C283.57 4084.49 281 4081.9199999999996 281 4078.75C281 4075.57 283.57 4073 286.75 4073C289.92 4073 292.49 4075.57 292.49 4078.75 " fill="#4c6fff" fill-opacity="1" transform="matrix(1,0,0,1,-245,-4071)"></path><path id="SvgjsPath1040" d="M290.49 4114.75C290.49 4117.92 287.92 4120.49 284.75 4120.49C281.57 4120.49 279 4117.92 279 4114.75C279 4111.57 281.57 4109 284.75 4109C287.92 4109 290.49 4111.57 290.49 4114.75 " fill="#4c6fff" fill-opacity="1" transform="matrix(1,0,0,1,-245,-4071)"></path><path id="SvgjsPath1041" d="M252.26 4102.63C252.26 4107.47 245 4107.47 245 4102.63C245 4097.79 252.26 4097.79 252.26 4102.63 " fill="#4c6fff" fill-opacity="1" transform="matrix(1,0,0,1,-245,-4071)"></path><path id="SvgjsPath1042" d="M261.26 4077.63C261.26 4082.4700000000003 254 4082.4700000000003 254 4077.63C254 4072.79 261.26 4072.79 261.26 4077.63 " fill="#4c6fff" fill-opacity="1" transform="matrix(1,0,0,1,-245,-4071)"></path><path id="SvgjsPath1043" d="M295.26 4100.63C295.26 4105.47 288 4105.47 288 4100.63C288 4095.79 295.26 4095.79 295.26 4100.63 " fill="#4c6fff" fill-opacity="1" transform="matrix(1,0,0,1,-245,-4071)"></path><path id="SvgjsPath1044" d="M275.26 4074.63C275.26 4079.4700000000003 268 4079.4700000000003 268 4074.63C268 4069.79 275.26 4069.79 275.26 4074.63 " fill="#4c6fff" fill-opacity="1" transform="matrix(1,0,0,1,-245,-4071)"></path><path id="SvgjsPath1045" d="M260.23 4113.12C260.23 4115.94 256 4115.94 256 4113.12C256 4110.29 260.23 4110.29 260.23 4113.12 " fill="#4c6fff" fill-opacity="1" transform="matrix(1,0,0,1,-245,-4071)"></path><path id="SvgjsPath1046" d="M293.23 4090.12C293.23 4092.94 289 4092.94 289 4090.12C289 4087.29 293.23 4087.29 293.23 4090.12 " fill="#4c6fff" fill-opacity="1" transform="matrix(1,0,0,1,-245,-4071)"></path><path id="SvgjsPath1047" d="M273.23 4117.12C273.23 4119.94 269 4119.94 269 4117.12C269 4114.29 273.23 4114.29 273.23 4117.12 " fill="#4c6fff" fill-opacity="1" transform="matrix(1,0,0,1,-245,-4071)"></path><path id="SvgjsPath1048" d="M252.23 4089.12C252.23 4091.94 248 4091.94 248 4089.12C248 4086.29 252.23 4086.29 252.23 4089.12 " fill="#4c6fff" fill-opacity="1" transform="matrix(1,0,0,1,-245,-4071)"></path></svg>