<svg xmlns="http://www.w3.org/2000/svg" width="111.328" height="22.207" viewBox="1.281 7.612 111.328 22.207"><g fill="#FFF"><path d="M1.281 29.453V7.978h9.126c2.295 0 3.962.193 5.002.578 1.04.387 1.873 1.072 2.498 2.059s.938 2.114.938 3.384c0 1.611-.474 2.942-1.421 3.991-.947 1.051-2.363 1.712-4.248 1.985.938.547 1.711 1.147 2.322 1.802s1.433 1.816 2.468 3.486l2.622 4.189h-5.186l-3.135-4.673c-1.113-1.67-1.875-2.722-2.285-3.157-.41-.434-.845-.732-1.304-.893-.459-.162-1.187-.242-2.183-.242h-.879v8.965l-4.335.001zM5.616 17.06h3.208c2.08 0 3.379-.088 3.896-.264s.923-.479 1.216-.908c.293-.429.439-.967.439-1.611 0-.723-.193-1.306-.579-1.75s-.93-.726-1.633-.843c-.352-.049-1.406-.073-3.164-.073H5.616v5.449zM22.052 18.848c0-2.188.327-4.023.981-5.508a10.09 10.09 0 0 1 2-2.944c.845-.869 1.77-1.514 2.776-1.934 1.338-.566 2.881-.85 4.629-.85 3.164 0 5.696.981 7.595 2.944s2.849 4.692 2.849 8.188c0 3.467-.942 6.18-2.827 8.138s-4.404 2.937-7.559 2.937c-3.193 0-5.732-.974-7.617-2.923-1.885-1.947-2.827-4.63-2.827-8.048zm4.468-.147c0 2.432.562 4.275 1.685 5.529 1.123 1.256 2.549 1.883 4.277 1.883s3.147-.623 4.255-1.867C37.845 23 38.4 21.133 38.4 18.642c0-2.461-.54-4.297-1.619-5.508-1.079-1.211-2.512-1.816-4.299-1.816-1.787 0-3.228.613-4.321 1.838-1.094 1.227-1.641 3.074-1.641 5.545zM44.083 29.453l7.339-11.206-6.65-10.269h5.068l4.307 6.899 4.219-6.899h5.024l-6.68 10.43 7.339 11.045H58.82l-4.761-7.427-4.775 7.427h-5.201zM66.144 29.453V7.978h4.336v21.475h-4.336zM74.655 29.453V7.978h4.219l8.789 14.341V7.978h4.028v21.475H87.34l-8.657-14.004v14.004h-4.028zM96.276 29.453V7.978h15.923v3.633h-11.587v4.761h10.781v3.618h-10.781v5.845h11.997v3.618H96.276z"/></g></svg>