<?xml version="1.0" encoding="utf-8"?>
<!-- Generator: Adobe Illustrator 17.0.0, SVG Export Plug-In . SVG Version: 6.00 Build 0)  -->
<!DOCTYPE svg PUBLIC "-//W3C//DTD SVG 1.1//EN" "http://www.w3.org/Graphics/SVG/1.1/DTD/svg11.dtd">
<svg version="1.1" id="Layer_1" xmlns="http://www.w3.org/2000/svg" xmlns:xlink="http://www.w3.org/1999/xlink" x="0px" y="0px"
	 width="111.328px" height="22.207px" viewBox="1.281 7.612 111.328 22.207" enable-background="new 1.281 7.612 111.328 22.207"
	 xml:space="preserve">
<g enable-background="new    ">
	<path fill="#FFFFFF" d="M1.281,29.453V7.978h9.126c2.295,0,3.962,0.193,5.002,0.578c1.04,0.387,1.873,1.072,2.498,2.059
		s0.938,2.114,0.938,3.384c0,1.611-0.474,2.942-1.421,3.991c-0.947,1.051-2.363,1.712-4.248,1.985
		c0.938,0.547,1.711,1.147,2.322,1.802s1.433,1.816,2.468,3.486l2.622,4.189h-5.186l-3.135-4.673
		c-1.113-1.67-1.875-2.722-2.285-3.157c-0.41-0.434-0.845-0.732-1.304-0.893c-0.459-0.162-1.187-0.242-2.183-0.242H5.616v8.965
		L1.281,29.453L1.281,29.453z M5.616,17.06h3.208c2.08,0,3.379-0.088,3.896-0.264s0.923-0.479,1.216-0.908
		c0.293-0.429,0.439-0.967,0.439-1.611c0-0.723-0.193-1.306-0.579-1.75s-0.93-0.726-1.633-0.843
		c-0.352-0.049-1.406-0.073-3.164-0.073H5.616V17.06z"/>
	<path fill="#FFFFFF" d="M22.052,18.848c0-2.188,0.327-4.023,0.981-5.508c0.488-1.094,1.155-2.075,2-2.944
		c0.845-0.869,1.77-1.514,2.776-1.934c1.338-0.566,2.881-0.85,4.629-0.85c3.164,0,5.696,0.981,7.595,2.944s2.849,4.692,2.849,8.188
		c0,3.467-0.942,6.18-2.827,8.138s-4.404,2.937-7.559,2.937c-3.193,0-5.732-0.974-7.617-2.923
		C22.994,24.949,22.052,22.266,22.052,18.848z M26.52,18.701c0,2.432,0.562,4.275,1.685,5.529c1.123,1.256,2.549,1.883,4.277,1.883
		s3.147-0.623,4.255-1.867C37.845,23,38.4,21.133,38.4,18.642c0-2.461-0.54-4.297-1.619-5.508c-1.079-1.211-2.512-1.816-4.299-1.816
		c-1.787,0-3.228,0.613-4.321,1.838C27.067,14.383,26.52,16.23,26.52,18.701z"/>
	<path fill="#FFFFFF" d="M44.083,29.453l7.339-11.206l-6.65-10.269h5.068l4.307,6.899l4.219-6.899h5.024l-6.68,10.43l7.339,11.045
		H58.82l-4.761-7.427l-4.775,7.427C49.284,29.453,44.083,29.453,44.083,29.453z"/>
	<path fill="#FFFFFF" d="M66.144,29.453V7.978h4.336v21.475C70.48,29.453,66.144,29.453,66.144,29.453z"/>
	<path fill="#FFFFFF" d="M74.655,29.453V7.978h4.219l8.789,14.341V7.978h4.028v21.475H87.34l-8.657-14.004v14.004
		C78.683,29.453,74.655,29.453,74.655,29.453z"/>
	<path fill="#FFFFFF" d="M96.276,29.453V7.978h15.923v3.633h-11.587v4.761h10.781v3.618h-10.781v5.845h11.997v3.618H96.276z"/>
</g>
</svg>
