<svg xmlns="http://www.w3.org/2000/svg" width="60" height="62"><path d="M19.73 34.18a9.5 9.5 0 0 1 2.06-10.38 9.521 9.521 0 0 1 10.38-2.08 9.522 9.522 0 0 1 5.9 8.79c0 5.27-4.26 9.55-9.54 9.55-3.85 0-7.33-2.32-8.8-5.88zm8.8-11.69a8.03 8.03 0 0 0-7.42 4.96c-1.24 3-.55 6.46 1.75 8.76a8.06 8.06 0 0 0 8.76 1.73c3-1.25 4.95-4.18 4.95-7.43-.01-4.43-3.6-8.02-8.04-8.03zM.47 18.52A6.179 6.179 0 0 1 1.8 11.8a6.163 6.163 0 0 1 6.71-1.33c2.3.95 3.8 3.2 3.8 5.69 0 3.4-2.76 6.15-6.15 6.16-2.5 0-4.74-1.5-5.69-3.8zm2.39.93c2.94 2.94 7.95.86 7.95-3.29 0-2.57-2.08-4.65-4.65-4.66-4.15 0-6.23 5.02-3.3 7.95zM8.47 46.52A6.179 6.179 0 0 1 9.8 39.8a6.163 6.163 0 0 1 6.71-1.33c2.3.95 3.8 3.2 3.8 5.69 0 3.4-2.76 6.15-6.15 6.16-2.5 0-4.74-1.5-5.69-3.8zm5.69-7.02c-4.15 0-6.23 5.02-3.3 7.95 2.94 2.94 7.95.86 7.95-3.29-.01-2.57-2.09-4.65-4.65-4.65zM40.47 57.52a6.179 6.179 0 0 1 1.33-6.72 6.163 6.163 0 0 1 6.71-1.33c2.3.95 3.8 3.2 3.8 5.69 0 3.4-2.76 6.15-6.15 6.16-2.5 0-4.74-1.5-5.69-3.8zm2.39.93c2.94 2.94 7.95.86 7.95-3.29 0-2.57-2.08-4.65-4.65-4.66-4.15 0-6.23 5.02-3.3 7.95zM47.47 23.52a6.179 6.179 0 0 1 1.33-6.72 6.163 6.163 0 0 1 6.71-1.33c2.3.95 3.8 3.2 3.8 5.69 0 3.4-2.76 6.15-6.15 6.16-2.5 0-4.74-1.5-5.69-3.8zm5.69-7.02c-4.15 0-6.23 5.02-3.3 7.95 2.94 2.94 7.95.86 7.95-3.29a4.667 4.667 0 0 0-4.65-4.65zM28.47 8.52A6.179 6.179 0 0 1 29.8 1.8 6.163 6.163 0 0 1 36.51.47c2.3.95 3.8 3.2 3.8 5.69 0 3.4-2.76 6.15-6.15 6.16-2.5 0-4.74-1.5-5.69-3.8zm2.39.93c2.94 2.94 7.95.86 7.95-3.29 0-2.57-2.08-4.66-4.65-4.66-4.15 0-6.23 5.02-3.3 7.95z" fill="#fff"/><path d="M36.79 27.9c-.86.03-1.1-1.16-.3-1.46l11.44-4.38c.93-.37 1.5 1.03.56 1.41l-11.44 4.37c-.08.04-.17.06-.26.06zM43.41 51.51c-.24 0-.46-.11-.61-.3l-9.64-13c-.59-.81.61-1.7 1.21-.89l9.63 13c.36.49.02 1.19-.59 1.19zM17.75 41.43c-.68 0-1-.83-.51-1.3l4.22-3.92c.75-.68 1.77.44 1.02 1.12l-4.22 3.9c-.14.13-.32.2-.51.2zM21.25 26.48c-.15 0-.29-.05-.41-.13l-10.5-6.97c-.82-.55-.01-1.78.82-1.25l10.5 6.97c.63.4.34 1.38-.41 1.38zM30.75 22.47h-.17a.76.76 0 0 1-.56-.9l2.57-10.99c.23-.98 1.69-.63 1.46.35l-2.56 10.96c-.08.34-.38.58-.74.58z" fill="#fff"/></svg>