<svg data-name="Layer 1" xmlns="http://www.w3.org/2000/svg" viewBox="0 0 51.347 53.348"><title>1</title><path d="M48.75 7.547H43.5V2.6h5.25zM27.687 30.86a2.1 2.1 0 1 1-2.1-2.2 2.158 2.158 0 0 1 2.1 2.2zm-.644-16.774c3.433 6.766 6.734 13.246 10.05 19.77-1.379 1.531-2.968 2.969-3.871 5.023-.7 1.606-1.754 3.047-1.828 4.891a.958.958 0 0 1-.676.586c-3.359.047-6.7.031-10.066.031-.692 0-.719-.48-.8-1.019a14.008 14.008 0 0 0-2.3-5.52c-.945-1.559-2.387-2.656-3.328-3.961 3.285-6.406 6.449-13.051 9.9-19.695v12.734c-2.1.66-2.835 2.387-2.445 5.16a3.629 3.629 0 0 0 3.961 3.227 3.644 3.644 0 0 0 3.824-3.137c.407-2.941-.465-4.664-2.566-5.281.07-4.195-.109-8.395.145-12.809zM33.9 47v3.6H17.25V47zM7.648 7.547H2.4V2.6h5.25zm43.695-5.953a1.415 1.415 0 0 0-1.59-1.547 538.245 538.245 0 0 0-6.96 0c-1.184 0-1.649.375-1.649 1.59-.016.7 0 1.262 0 2.012H10.2c0-.9.015-1.442 0-2.176A1.438 1.438 0 0 0 8.652 0C6.3-.011 3.941.02 1.586.036A1.384 1.384 0 0 0 .011 1.61a781.754 781.754 0 0 0 0 7.183c0 1.02.481 1.5 1.516 1.516q3.533.024 7.066 0c1.172 0 1.606-.613 1.621-1.785.016-.735 0-1.559 0-2.309h14.25C24.406 6.965 12.179 32.5 11.64 33.5a1.264 1.264 0 0 0 .106 1.067 9.233 9.233 0 0 0 1.394 1.394 15.167 15.167 0 0 1 3.512 4.785 25.2 25.2 0 0 1 1.273 3.524c-.39.047-.734.121-1.078.137-1.769.074-2.054.359-2.054 2.1v5.039c0 1.352.449 1.8 1.785 1.8h18.211c1.379 0 1.785-.406 1.785-1.77 0-1.816.015-3.644 0-5.46 0-1.172-.512-1.649-1.68-1.7-.465-.015-.945-.1-1.531-.179.691-1.547 1.246-2.926 1.906-4.247a14.4 14.4 0 0 1 1.637-2.609c.765-.93 1.726-1.711 2.519-2.625a1.684 1.684 0 0 0 .285-1.305C38.953 32.012 27 6.95 26.714 6.2h14.414c0 .9-.031 1.769 0 2.55a1.356 1.356 0 0 0 1.411 1.469c2.461.016 4.933.047 7.394.031a1.271 1.271 0 0 0 1.4-1.394c.026-2.418.01-4.832.01-7.262z"/></svg>