<svg id="Layer_1" data-name="Layer 1" xmlns="http://www.w3.org/2000/svg" viewBox="0 0 63.75 63.75"><defs><style>.cls-1{fill-rule:evenodd}</style></defs><title>5</title><path class="cls-1" d="M3.75 48.75H60V60H3.75zM1.875 45A1.876 1.876 0 0 0 0 46.875v15a1.876 1.876 0 0 0 1.875 1.875h60a1.876 1.876 0 0 0 1.875-1.875v-15A1.876 1.876 0 0 0 61.875 45zM3.75 26.25H60V37.5H3.75zM1.875 22.5A1.876 1.876 0 0 0 0 24.375v15a1.876 1.876 0 0 0 1.875 1.875h60a1.876 1.876 0 0 0 1.875-1.875v-15a1.876 1.876 0 0 0-1.875-1.875zM3.75 3.75H60V15H3.75zM1.875 0A1.876 1.876 0 0 0 0 1.875v15a1.876 1.876 0 0 0 1.875 1.875h60a1.876 1.876 0 0 0 1.875-1.875v-15A1.876 1.876 0 0 0 61.875 0z"/></svg>