<svg xmlns="http://www.w3.org/2000/svg" width="51" height="51"><path d="M48.79 11.94h-5.73l-9.8-10.55a1.19 1.19 0 0 0-1.6-.15L17.4 11.94h-3.92l-2.56-6.98c-.18-.48-.63-.8-1.14-.8H0v2.46h8.94l8.81 23.97c.18.48.63.8 1.14.8h26.04l-3.15 6.48H11.96v2.46h30.57c.47 0 .89-.26 1.09-.68l4.35-8.95c.19-.38.16-.83-.06-1.19s-.61-.58-1.03-.58h-1.17l4.25-15.43c.1-.38.02-.77-.21-1.08-.23-.31-.59-.48-.96-.48zM44.63 23.7H17.81l-1.11-3.03h28.76zm-1.44 5.23H19.73l-1.02-2.77h25.24zm2.95-10.72H15.79l-1.4-3.82h32.8z" fill="#4c6fff"/><path d="M18.33 40C15.39 40 13 42.39 13 45.33s2.39 5.34 5.33 5.34 5.34-2.4 5.34-5.34S21.27 40 18.33 40zM36.33 40C33.39 40 31 42.39 31 45.33s2.4 5.34 5.33 5.34c2.94 0 5.34-2.4 5.34-5.34S39.28 40 36.33 40z" fill="#4c6fff"/></svg>