<svg id="Layer_1" data-name="Layer 1" xmlns="http://www.w3.org/2000/svg" viewBox="0 0 70.624 52.881"><defs><style>.cls-1{fill-rule:evenodd}</style></defs><title>2</title><path class="cls-1" d="M5.253 34.174a29.4 29.4 0 0 1 53.688-8.312A29.208 29.208 0 0 1 62.382 48.1l2.914.711a32.4 32.4 0 0 0-48.308-35.363A32.191 32.191 0 0 0 2.335 33.463z"/><path class="cls-1" d="M6.648 36.3c0 4.434-6.648 4.434-6.648 0s6.648-4.433 6.648 0M66.265 49.553c0 4.438-6.656 4.438-6.656 0s6.656-4.437 6.656 0M45.511 10.588a4.164 4.164 0 1 1-4.164-4.16 4.165 4.165 0 0 1 4.164 4.16z"/><path d="M14.597 1.745L68.285 17.6"/><path transform="rotate(-73.547 41.437 9.672)" d="M40.687-18.32h1.499v55.984h-1.499z"/><path class="cls-1" d="M16.671 1.846a1.845 1.845 0 1 1-3.691 0 1.845 1.845 0 1 1 3.691 0M70.624 17.987a1.845 1.845 0 1 1-3.691 0 1.845 1.845 0 1 1 3.691 0"/></svg>