<svg xmlns="http://www.w3.org/2000/svg" width="51" height="50"><path d="M40.64 24.82c0 8.18-6.64 14.82-14.82 14.82C17.63 39.64 11 33 11 24.82 11 16.63 17.63 10 25.82 10c8.18 0 14.82 6.63 14.82 14.82M47.49 7.75a5.74 5.74 0 0 1-5.74 5.74c-3.18 0-5.75-2.57-5.75-5.74C36 4.57 38.57 2 41.75 2c3.17 0 5.74 2.57 5.74 5.75M45.49 43.75a5.74 5.74 0 0 1-5.74 5.74c-3.18 0-5.75-2.57-5.75-5.74 0-3.18 2.57-5.75 5.75-5.75 3.17 0 5.74 2.57 5.74 5.75M7.26 31.63c0 4.84-7.26 4.84-7.26 0s7.26-4.84 7.26 0M16.26 6.63c0 4.84-7.26 4.84-7.26 0s7.26-4.84 7.26 0M50.26 29.63c0 4.84-7.26 4.84-7.26 0s7.26-4.84 7.26 0M30.26 3.63c0 4.84-7.26 4.84-7.26 0s7.26-4.84 7.26 0M15.23 42.12c0 2.82-4.23 2.82-4.23 0 0-2.83 4.23-2.83 4.23 0M48.23 19.12c0 2.82-4.23 2.82-4.23 0 0-2.83 4.23-2.83 4.23 0M28.23 46.12c0 2.82-4.23 2.82-4.23 0 0-2.83 4.23-2.83 4.23 0M7.23 18.12c0 2.82-4.23 2.82-4.23 0 0-2.83 4.23-2.83 4.23 0" fill="#4c6fff"/></svg>