<svg data-name="Layer 1" xmlns="http://www.w3.org/2000/svg" viewBox="0 0 64.926 75.145"><title>3</title><path d="M54.41 42.622a13.324 13.324 0 0 1 3.008 3.785 17.811 17.811 0 0 1 1.711 4.847 43.5 43.5 0 0 1 .742 5.356c.066 1.14.133 2.473.2 4.008s.184 3.14.352 4.75A31.676 31.676 0 0 0 61.238 70c.094.364.2.711.32 1.051h.969a11.93 11.93 0 0 1-.406-1.277 31 31 0 0 1-.793-4.5 76.971 76.971 0 0 1-.352-4.695 262.572 262.572 0 0 0-.2-4.028 43.593 43.593 0 0 0-.762-5.476 18.711 18.711 0 0 0-1.8-5.094A14.236 14.236 0 0 0 55 41.93a11.559 11.559 0 0 0-2.617-1.672v1a10.445 10.445 0 0 1 2.027 1.364zM48.761 3.844a20.148 20.148 0 0 1 5.012 2.883V6.29h.887a20.916 20.916 0 0 0-9.6-4.446v.926a20.481 20.481 0 0 1 3.701 1.074zM58.175 32.364a15.076 15.076 0 0 1-5.793 5.558v1.035a16.141 16.141 0 0 0 6.579-6.14 20.315 20.315 0 0 0 2.449-7.367h-.918a19.334 19.334 0 0 1-2.317 6.914zM4.09 1.411h35.973v.91H4.09zM1.136 4.368h.91v66.688h-.91zM46.425 65.391c-.2-3.129-.5-6.18-.906-9.07a22.163 22.163 0 0 0-1-4.192h-.969a20.271 20.271 0 0 1 1.067 4.321c.4 2.867.7 5.894.9 9a32.259 32.259 0 0 0 .817 5.605h.945a31 31 0 0 1-.854-5.664zM16.898 48.04h.91v23.016h-.91zM41.144 47.129c-1.844-1.355-4.535-2.043-8.027-2.043H19.855V46h13.266a13.5 13.5 0 0 1 6.945 1.511v-.379zM4.09 73.098h10.766v.91H4.09zM50.062 73.098h10.777v.91H50.062zM42.457 16.817a7.146 7.146 0 0 1 2.121 3.633h.945a8.125 8.125 0 0 0-2.473-4.321 9.294 9.294 0 0 0-3.445-1.82v.961a8.18 8.18 0 0 1 2.852 1.547zM19.855 33.84h14.758v.91H19.855zM19.855 13.661h14.758v.91H19.855zM16.898 16.614h.91v15.121h-.91zM42.453 31.547a8.081 8.081 0 0 1-2.844 1.578v.961a9.161 9.161 0 0 0 3.449-1.859c1.653-1.473 2.6-3.75 2.813-6.777h-.914c-.207 2.75-1.043 4.797-2.504 6.097zM0 .274h3.18v3.184H0zM40.972.274h3.18v3.184h-3.18zM15.761 12.528h3.184v3.18h-3.184zM15.761 32.645h3.184v3.184h-3.184zM15.761 43.95h3.184v3.18h-3.184zM40.972 48.04h3.18v3.18h-3.18zM15.761 71.961h3.184v3.184h-3.184zM0 71.961h3.18v3.184H0zM45.972 71.961h3.18v3.184h-3.18zM61.746 71.961h3.18v3.184h-3.18zM48.297 38.227h3.18v3.18h-3.18zM43.929 21.36h3.18v3.18h-3.18zM35.519 12.528h3.18v3.18h-3.18zM35.519 32.645h3.18v3.184h-3.18zM54.683 7.196h3.18v3.18h-3.18z"/><path d="M62.886 24.54v-3.18h-1.218V3.129a1.6 1.6 0 1 0-.914 0v12.239q-.246-.8-.563-1.575a19.144 19.144 0 0 0-1.422-2.757v.25h-.91a17.937 17.937 0 0 1 1.488 2.851 19.486 19.486 0 0 1 1.387 6.313h.016v.91H59.7v3.18h1.05v18.128a1.6 1.6 0 1 0 .914 0V24.54z"/></svg>