<svg xmlns="http://www.w3.org/2000/svg" width="49" height="51"><path d="M48 2c0-.45-.54-.96-1-1-2.66.03-4.84.03-7 0-1.1.04-1.54.4-2 2 .45.19.46.72 0 1-9.24.42-18.8.42-28 0-.47-.42-.45-.93 0-2-.49-.48-1.07-1-2-1-2.11-.01-4.32.02-7 0-.51.03-.99.52-1 2v6c.01 1.2.46 1.65 1 2 2.63-.32 4.83-.32 7 0 1.13-.34 1.53-.91 2-2-.44-.7-.45-1.47 0-2 4.08-.18 8.44-.18 13 0-.18.53-11.61 24.46-12 25-.25.64-.19 1.18 0 1 .35.88.82 1.31 1 2 1.74.93 2.71 2.55 4 4 .09 1.16.34 2.28 1 3-.61.54-.93.61-1 1-1.9-.31-2.17-.04-2 2-.17 1.16-.17 2.74 0 4-.17 1.58.25 2 1 2h18c.81 0 1.19-.38 1-2 .19-1.36.2-3.07 0-5 .19-.87-.29-1.32-1-1-.82-.38-1.26-.46-2-1 .83-.98 1.35-2.28 2-4 .4-.37.89-1.22 2-2 .22-.83 1.11-1.56 2-2 .08-.67.25-1.39 0-2-.59-1-11.76-24.49-12-25 4.64-.19 8.99-.19 13 0 .45.65.42 1.47 0 2 .49 1.02.91 1.58 2 2 2.07-.41 4.38-.38 7 0 .53-.39.97-.88 1-2 .01-1.97 0-4.23 0-7 0 .49 0 .49 0 0zM25 14c3.63 6.25 6.81 12.24 10 18-1.33 1.68-2.86 3.01-4 5-.4 1.39-1.41 2.72-1 4-.5.62-.9.95-1 1-3.37.01-6.58 0-10 0-.49 0-.51-.45-1-1 .15-1.83-.76-3.42-2-5-.71-1.48-2.09-2.5-3-4 3.16-5.62 6.21-11.76 10-18-.48 4.1-.48 8.11 0 12-2.5.47-3.2 2.07-3 5 .26.21.74 2.61 4 3 2.99-.39 3.59-2.76 4-3 .05-3-.78-4.59-3-5 .26-4.04.08-7.93 0-12 .33 0 .33 0 0 0zm7 35H16v-4h16v4zM2 8V3h5v5H2zm22 23a2 2 0 1 1-.001-3.999A2 2 0 0 1 24 31zM41 8V3h5v5h-5z" fill="#4c6fff"/></svg>