<svg xmlns="http://www.w3.org/2000/svg" width="137" height="68"><defs><linearGradient id="a" gradientUnits="userSpaceOnUse" x1="961.498" y1="1389" x2="961.498" y2="1457"><stop offset="0"/><stop stop-color="#b80e7a" offset="1"/></linearGradient></defs><path d="M951.2 1449.25c-.24-.45-2.54-2.69-2.78-3.05-.49-.73-.77-1.18-1.1-1.87-.35-.71-.69-1.49-1.02-2.28 0 0-.35-1.99-.51-2.4-.3-.81-.43-1.62-.67-2.46-.24-.83-.6-2.06-.86-3.06-.36.34-.5 2.57-.57 3.11-.13.99-.07 1.98 0 2.96.03.49.36 2.41.48 2.88.25.94.95 2.96 1.41 3.88.4.8-4.72-1.48-6.35-3.57-1.23-1.59-5.26-4.59-9.51-10.24-.55-.74-2.19-2.31-2.27-3.35-1.13 1.38.91 5.81 1.42 6.75.51.94 1.71 2.24 2.4 3.03.34.4 3.17 3.76 3.17 3.76-1.65-.88-2.94-1.44-5.21-2.78-.62-.37-1.14-.72-1.61-1.05-2.63-3.04-5.41-8.34-6.45-10.16-1.05-1.86-1.99-3.7-2.52-5.63-.11-.42-.3-2.5-.36-3.02-.08-.85.06-1.89.87-2.93-.3-.01-.61.11-.89.28-.27.17-.52.4-.72.66-.41.51-.7 1.08-.93 1.65-.23.58-.4 1.19-.52 1.8-.06.3-.18 1.57-.17 1.92.05 1.28.31 2.51.7 3.67.27.82.31 1.44.69 2.18-.87-.97-3.2-3.55-3.86-5.1-.22-.52-.51-2.38-.48-4.03.29-1.49.62-2.65.99-4.3.08-.32 1.71-7.35 2-7.57.13-.1 1.94-3.43 2.08-3.56 0 0 1.38-1.66 1.56-1.97.16-.32 2.72-3.94 2.91-4.57.4-1.35-.37-1.7-.37-1.7-.53-.23-.74-.15-.99-.11-.96.41-3.77 3.57-3.77 3.57-1.21 1.35-2.26 1.98-2.26 1.98-1.03.7-2.67-.04-3.33-1.4-.21-.73-.28-1.4-.27-2.01.05-1.94.34-3.67.68-5.11.04-.16.78-3.6.68-5.05-.23.03-1.72 2.09-2.14 3.12 0 0-1.75 3.57-1.85 5.79-.29 1.74-.13 3.74.24 5.39.39 1.64.92 2.39 1.02 3.92.1 1.58.16 4.18.1 5.85-.07 1.69-.11 2.68-.88 4.29 0 0-.66 1.98-.82 2.66-.54 2.34-3.26-.34-3.26-.34-1.44-1.63-2.36-2.7-3.41-4.6-.5-1.37-.41-2.18-.45-2.93-.05-2.03.49-6.18.74-8.22.22-1.95.35-7.33.07-11.27-.03-.31.01-1.71-.2-2.3-.31.06-3.28 10.35-3.55 12.6-.25 2.07-1.29 5.87-1.34 8.12-2.84-2.1-3.53-4.44-3.53-4.44-1.16.53-.44 3.82-.06 4.96 1.17 3.42 4.48 7.48 4.6 7.66 1.32 2 2.66 3.84 4.13 5.51.24.27 5.29 5.76 6.01 6.28.81.59 6.94 6.69 9.39 8.47 1.77 1.3 13.13 8.3 18.64 10.21 1.95.68 7.26 3.67 7.82 4.01.86.55 3.03 2.34 3.22 2.92l.14.05.71.29s4.87-3.04 4.77-4.09c0-.08-.03-.18-.05-.28-.26-1.06-1.32-2.58-1.75-3.38zm76.17-42.61c1.16.54.44 3.81.05 4.96-1.15 3.44-4.45 7.5-4.57 7.67-1.31 1.99-2.64 3.83-4.11 5.5-.24.27-5.26 5.76-5.96 6.28-.8.59-6.9 6.69-9.34 8.47-1.75 1.3-13.03 8.31-18.51 10.22-1.94.67-7.21 3.65-7.77 4-.85.54-3.01 2.33-3.2 2.92l-.13.05-.71.29s-5.22-2.65-5.12-3.7c.02-.15.07-.33.14-.51.4-1.13 1.64-2.8 2.03-3.55.24-.45 2.53-2.69 2.77-3.05.47-.73.76-1.18 1.1-1.87.35-.71.68-1.49 1.01-2.28 0 0 .35-1.99.5-2.39.3-.81.43-1.63.67-2.47.24-.81.59-2.04.86-3.06.35.35.5 2.58.56 3.11.13 1 .08 1.99.01 2.96-.03.49-.36 2.41-.48 2.89-.25.94-.95 2.95-1.4 3.87-.4.8 4.69-1.48 6.31-3.57 1.22-1.59 5.22-4.59 9.44-10.24.55-.72 2.19-2.31 2.27-3.34 1.11 1.39-.91 5.82-1.42 6.75-.51.93-1.71 2.22-2.39 3.02-.34.4-3.15 3.76-3.15 3.76 1.63-.87 2.91-1.44 5.17-2.78.62-.37 1.13-.71 1.6-1.05 2.62-3.03 5.38-8.32 6.4-10.16 1.05-1.86 1.99-3.7 2.51-5.63.11-.42.3-2.49.35-3.01.09-.86-.05-1.9-.87-2.93.31-.01.62.11.9.28.27.18.51.4.71.66.41.5.7 1.07.93 1.65.22.59.4 1.18.5 1.79.07.31.2 1.57.18 1.92-.03 1.27-.3 2.5-.69 3.68-.26.81-.31 1.43-.69 2.18.87-.98 3.19-3.55 3.84-5.11.22-.51.51-2.38.47-4.02-.29-1.5-.61-2.65-.98-4.3-.08-.32-1.71-7.35-1.98-7.57-.14-.11-1.93-3.43-2.08-3.56 0 0-1.36-1.66-1.54-1.97-.17-.32-2.72-3.94-2.9-4.57-.4-1.35.37-1.7.37-1.7.53-.23.73-.15.98-.11.96.41 3.74 3.57 3.74 3.57 1.19 1.34 2.25 1.98 2.25 1.98 1.03.7 2.64-.04 3.3-1.41.22-.72.28-1.39.27-2a24.25 24.25 0 0 0-.68-5.11c-.04-.17-.77-3.61-.67-5.05.23.03 1.7 2.1 2.13 3.12 0 0 1.72 3.57 1.82 5.79.29 1.73.13 3.73-.24 5.39-.38 1.65-.92 2.4-1.02 3.92-.09 1.58-.15 4.17-.09 5.85.07 1.68.11 2.68.87 4.28 0 0 .66 1.99.82 2.67.55 2.33 3.24-.35 3.24-.35 1.44-1.62 2.35-2.69 3.4-4.59.49-1.36.42-2.18.44-2.93.05-2.04-.48-6.18-.73-8.22-.22-1.96-.34-7.33-.06-11.27.02-.31-.01-1.71.19-2.3.31.07 3.26 10.36 3.53 12.6.25 2.06 1.29 5.87 1.34 8.12 2.82-2.1 3.51-4.44 3.51-4.44z" fill="url(#a)" transform="translate(-892 -1389)"/></svg>