<svg xmlns="http://www.w3.org/2000/svg" width="201" height="201"><defs><linearGradient id="a" gradientUnits="userSpaceOnUse" x1="479" y1="3295.999" x2="479" y2="3495.999"><stop stop-color="#9d3dcf" offset="0"/><stop stop-color="#4c6fff" offset="1"/></linearGradient></defs><path d="M398.06 3347.84l81.05 40.39 81.06-40.4-81.06-40.4zm-.01 93.95l81.05 40.39 81.06-40.4-33.95-16.91-44.47 22.18c-1.66.82-3.61.82-5.26 0L432 3424.87zm.02-46.98l81.03 40.4 81.06-40.4-33.95-16.91-44.47 22.18c-1.66.82-3.61.82-5.26 0L432 3377.9zm80.82-99.81c.99-.02 1.97.19 2.85.63l94.22 46.97c1.99 1 3.25 3.03 3.25 5.25s-1.26 4.25-3.25 5.25l-36.57 18.24 36.57 18.24a5.88 5.88 0 0 1 3.26 5.25c0 2.23-1.27 4.26-3.26 5.26l-36.57 18.24 36.57 18.22c1.99 1 3.26 3.03 3.26 5.26a5.88 5.88 0 0 1-3.26 5.25l-94.22 46.98c-1.66.82-3.61.82-5.26 0l-94.22-46.98c-2-.99-3.26-3.03-3.26-5.25 0-2.23 1.26-4.26 3.26-5.26l36.57-18.22-36.57-18.24c-2-1-3.26-3.03-3.26-5.26 0-2.22 1.26-4.26 3.26-5.25l36.57-18.24-36.57-18.24c-1.99-1-3.25-3.03-3.25-5.25s1.26-4.25 3.25-5.25l94.22-46.97c.75-.38 1.57-.59 2.41-.63z" fill="url(#a)" transform="translate(-379 -3294)"/></svg>