<svg id="Layer_1" data-name="Layer 1" xmlns="http://www.w3.org/2000/svg" viewBox="0 0 64.926 75.145"><title>3</title><path d="M54.41,42.622a13.324,13.324,0,0,1,3.008,3.785,17.811,17.811,0,0,1,1.711,4.847,43.5,43.5,0,0,1,.742,5.356c.066,1.14.133,2.473.2,4.008s.184,3.14.352,4.75A31.676,31.676,0,0,0,61.238,70c.094.364.2.711.32,1.051h.969a11.93,11.93,0,0,1-.406-1.277,31,31,0,0,1-.793-4.5c-.168-1.59-.285-3.168-.352-4.695-.066-1.543-.133-2.879-.2-4.028a43.593,43.593,0,0,0-.762-5.476,18.711,18.711,0,0,0-1.8-5.094A14.236,14.236,0,0,0,55,41.93a11.559,11.559,0,0,0-2.617-1.672v1A10.445,10.445,0,0,1,54.41,42.622Z"/><path d="M48.761,3.844a20.148,20.148,0,0,1,5.012,2.883V6.29h.887a20.916,20.916,0,0,0-9.6-4.446V2.77A20.481,20.481,0,0,1,48.761,3.844Z"/><path d="M58.175,32.364a15.076,15.076,0,0,1-5.793,5.558v1.035a16.141,16.141,0,0,0,6.579-6.14A20.315,20.315,0,0,0,61.41,25.45h-.918A19.334,19.334,0,0,1,58.175,32.364Z"/><rect x="4.09" y="1.411" width="35.973" height="0.91"/><rect x="1.136" y="4.368" width="0.91" height="66.688"/><path d="M46.425,65.391c-.2-3.129-.5-6.18-.906-9.07a22.163,22.163,0,0,0-1-4.192H43.55a20.271,20.271,0,0,1,1.067,4.321c.4,2.867.7,5.894.9,9a32.259,32.259,0,0,0,.817,5.605h.945A31,31,0,0,1,46.425,65.391Z"/><rect x="16.898" y="48.04" width="0.91" height="23.016"/><path d="M41.144,47.129c-1.844-1.355-4.535-2.043-8.027-2.043H19.855V46H33.121a13.5,13.5,0,0,1,6.945,1.511v-.379Z"/><rect x="4.09" y="73.098" width="10.766" height="0.91"/><rect x="50.062" y="73.098" width="10.777" height="0.91"/><path d="M42.457,16.817a7.146,7.146,0,0,1,2.121,3.633h.945a8.125,8.125,0,0,0-2.473-4.321,9.294,9.294,0,0,0-3.445-1.82v.961A8.18,8.18,0,0,1,42.457,16.817Z"/><rect x="19.855" y="33.84" width="14.758" height="0.91"/><rect x="19.855" y="13.661" width="14.758" height="0.91"/><rect x="16.898" y="16.614" width="0.91" height="15.121"/><path d="M42.453,31.547a8.081,8.081,0,0,1-2.844,1.578v.961a9.161,9.161,0,0,0,3.449-1.859c1.653-1.473,2.6-3.75,2.813-6.777h-.914C44.75,28.2,43.914,30.247,42.453,31.547Z"/><rect y="0.274" width="3.18" height="3.184"/><rect x="40.972" y="0.274" width="3.18" height="3.184"/><rect x="15.761" y="12.528" width="3.184" height="3.18"/><rect x="15.761" y="32.645" width="3.184" height="3.184"/><rect x="15.761" y="43.95" width="3.184" height="3.18"/><rect x="40.972" y="48.04" width="3.18" height="3.18"/><rect x="15.761" y="71.961" width="3.184" height="3.184"/><rect y="71.961" width="3.18" height="3.184"/><rect x="45.972" y="71.961" width="3.18" height="3.184"/><rect x="61.746" y="71.961" width="3.18" height="3.184"/><rect x="48.297" y="38.227" width="3.18" height="3.18"/><rect x="43.929" y="21.36" width="3.18" height="3.18"/><rect x="35.519" y="12.528" width="3.18" height="3.18"/><rect x="35.519" y="32.645" width="3.18" height="3.184"/><rect x="54.683" y="7.196" width="3.18" height="3.18"/><path d="M62.886,24.54V21.36H61.668V3.129a1.6,1.6,0,1,0-.914,0V15.368q-.246-.8-.563-1.575a19.144,19.144,0,0,0-1.422-2.757v.25h-.91a17.937,17.937,0,0,1,1.488,2.851,19.486,19.486,0,0,1,1.387,6.313h.016v.91H59.7v3.18H60.75V42.668a1.6,1.6,0,1,0,.914,0V24.54Z"/></svg>