<svg id="SvgjsSvg1000" xmlns="http://www.w3.org/2000/svg" version="1.1" xmlns:xlink="http://www.w3.org/1999/xlink" xmlns:svgjs="http://svgjs.com/svgjs" width="60" height="62"><defs id="SvgjsDefs1001"></defs><path id="SvgjsPath1007" d="M395.73 399.18C394.25 395.62 395.06 391.52 397.79 388.8C400.51000000000005 386.07 404.6 385.25 408.17 386.72C411.73 388.18 414.06 391.65000000000003 414.07 395.51000000000005C414.07 400.78000000000003 409.81 405.06000000000006 404.53 405.06000000000006C400.67999999999995 405.06000000000006 397.2 402.74000000000007 395.72999999999996 399.18000000000006ZM404.53 387.49C401.28 387.49 398.34999999999997 389.45 397.10999999999996 392.45C395.86999999999995 395.45 396.55999999999995 398.90999999999997 398.85999999999996 401.21C401.15999999999997 403.5 404.61999999999995 404.18 407.61999999999995 402.94C410.61999999999995 401.69 412.56999999999994 398.76 412.56999999999994 395.51C412.55999999999995 391.08 408.9699999999999 387.49 404.5299999999999 387.48Z " fill="#ffffff" fill-opacity="1" transform="matrix(1,0,0,1,-376,-365)"></path><path id="SvgjsPath1008" d="M376.47 383.52C375.52000000000004 381.21 376.04 378.57 377.8 376.79999999999995C379.56 375.03999999999996 382.21000000000004 374.52 384.51 375.46999999999997C386.81 376.41999999999996 388.31 378.66999999999996 388.31 381.15999999999997C388.31 384.55999999999995 385.55 387.30999999999995 382.16 387.32C379.66 387.32 377.42 385.82 376.47 383.52ZM378.86 384.45C381.8 387.39 386.81 385.31 386.81 381.15999999999997C386.81 378.59 384.73 376.51 382.16 376.49999999999994C378.01000000000005 376.49999999999994 375.93 381.5199999999999 378.86 384.44999999999993Z " fill="#ffffff" fill-opacity="1" transform="matrix(1,0,0,1,-376,-365)"></path><path id="SvgjsPath1009" d="M384.47 411.52C383.52000000000004 409.21 384.04 406.57 385.8 404.79999999999995C387.56 403.03999999999996 390.21000000000004 402.52 392.51 403.46999999999997C394.81 404.41999999999996 396.31 406.66999999999996 396.31 409.15999999999997C396.31 412.55999999999995 393.55 415.30999999999995 390.16 415.32C387.66 415.32 385.42 413.82 384.47 411.52ZM390.16 404.5C386.01000000000005 404.5 383.93 409.52 386.86 412.45C389.8 415.39 394.81 413.31 394.81 409.15999999999997C394.8 406.59 392.72 404.51 390.16 404.51Z " fill="#ffffff" fill-opacity="1" transform="matrix(1,0,0,1,-376,-365)"></path><path id="SvgjsPath1010" d="M416.47 422.52C415.52000000000004 420.21 416.04 417.57 417.8 415.79999999999995C419.56 414.03999999999996 422.21000000000004 413.52 424.51 414.46999999999997C426.81 415.41999999999996 428.31 417.66999999999996 428.31 420.15999999999997C428.31 423.55999999999995 425.55 426.30999999999995 422.16 426.32C419.66 426.32 417.42 424.82 416.47 422.52ZM418.86 423.45C421.8 426.39 426.81 424.31 426.81 420.15999999999997C426.81 417.59 424.73 415.51 422.16 415.49999999999994C418.01000000000005 415.49999999999994 415.93 420.5199999999999 418.86 423.44999999999993Z " fill="#ffffff" fill-opacity="1" transform="matrix(1,0,0,1,-376,-365)"></path><path id="SvgjsPath1011" d="M423.47 388.52C422.52000000000004 386.21 423.04 383.57 424.8 381.79999999999995C426.56 380.03999999999996 429.21000000000004 379.52 431.51 380.46999999999997C433.81 381.41999999999996 435.31 383.66999999999996 435.31 386.15999999999997C435.31 389.55999999999995 432.55 392.30999999999995 429.16 392.32C426.66 392.32 424.42 390.82 423.47 388.52ZM429.16 381.5C425.01000000000005 381.5 422.93 386.52 425.86 389.45C428.8 392.39 433.81 390.31 433.81 386.15999999999997C433.8 383.59 431.72 381.52 429.16 381.51Z " fill="#ffffff" fill-opacity="1" transform="matrix(1,0,0,1,-376,-365)"></path><path id="SvgjsPath1012" d="M404.47 373.52C403.52000000000004 371.21 404.04 368.57 405.8 366.79999999999995C407.56 365.03999999999996 410.21000000000004 364.52 412.51 365.46999999999997C414.81 366.41999999999996 416.31 368.66999999999996 416.31 371.15999999999997C416.31 374.55999999999995 413.55 377.30999999999995 410.16 377.32C407.66 377.32 405.42 375.82 404.47 373.52ZM406.86 374.45C409.8 377.39 414.81 375.31 414.81 371.15999999999997C414.81 368.59 412.73 366.49999999999994 410.16 366.49999999999994C406.01000000000005 366.49999999999994 403.93 371.5199999999999 406.86 374.44999999999993Z " fill="#ffffff" fill-opacity="1" transform="matrix(1,0,0,1,-376,-365)"></path><path id="SvgjsPath1013" d="M412.79 392.9L412.79 392.9C411.93 392.92999999999995 411.69 391.73999999999995 412.49 391.44L423.93 387.06C424.86 386.69 425.43 388.09 424.49 388.47L413.05 392.84000000000003C412.97 392.88000000000005 412.88 392.90000000000003 412.79 392.90000000000003Z " fill="#ffffff" fill-opacity="1" transform="matrix(1,0,0,1,-376,-365)"></path><path id="SvgjsPath1014" d="M419.41 416.51L419.41 416.51C419.17 416.51 418.95000000000005 416.4 418.8 416.21L409.16 403.21C408.57000000000005 402.4 409.77000000000004 401.51 410.37 402.32L420 415.32C420.36 415.81 420.02 416.51 419.41 416.51Z " fill="#ffffff" fill-opacity="1" transform="matrix(1,0,0,1,-376,-365)"></path><path id="SvgjsPath1015" d="M393.75 406.43L393.75 406.43C393.07 406.43 392.75 405.6 393.24 405.13L397.46000000000004 401.21C398.21000000000004 400.53 399.23 401.65 398.48 402.33L394.26 406.22999999999996C394.12 406.35999999999996 393.94 406.42999999999995 393.75 406.42999999999995Z " fill="#ffffff" fill-opacity="1" transform="matrix(1,0,0,1,-376,-365)"></path><path id="SvgjsPath1016" d="M397.25 391.48L397.25 391.48C397.1 391.48 396.96 391.43 396.84 391.35L386.34 384.38C385.52 383.83 386.33 382.6 387.15999999999997 383.13L397.65999999999997 390.1C398.28999999999996 390.5 397.99999999999994 391.48 397.24999999999994 391.48Z " fill="#ffffff" fill-opacity="1" transform="matrix(1,0,0,1,-376,-365)"></path><path id="SvgjsPath1017" d="M406.75 387.47L406.58 387.47C406.18 387.37 405.93 386.97 406.02 386.57000000000005L408.59 375.58000000000004C408.82 374.6 410.28 374.95000000000005 410.04999999999995 375.93000000000006L407.48999999999995 386.89000000000004C407.40999999999997 387.23 407.10999999999996 387.47 406.74999999999994 387.47Z " fill="#ffffff" fill-opacity="1" transform="matrix(1,0,0,1,-376,-365)"></path></svg>