<svg id="SvgjsSvg1000" xmlns="http://www.w3.org/2000/svg" version="1.1" xmlns:xlink="http://www.w3.org/1999/xlink" xmlns:svgjs="http://svgjs.com/svgjs" width="137" height="68"><defs id="SvgjsDefs1001"><linearGradient id="SvgjsLinearGradient1008" gradientUnits="userSpaceOnUse" x1="961.4982247580815" y1="1389" x2="961.4982247580815" y2="1457"><stop id="SvgjsStop1009" stop-opacity="1" stop-color="#000000" offset="0"></stop><stop id="SvgjsStop1010" stop-opacity="1" stop-color="#b80e7a" offset="1"></stop></linearGradient></defs><path id="SvgjsPath1007" d="M951.2 1449.25C950.96 1448.8 948.6600000000001 1446.56 948.4200000000001 1446.2C947.9300000000001 1445.47 947.6500000000001 1445.02 947.32 1444.3300000000002C946.97 1443.6200000000001 946.63 1442.8400000000001 946.3000000000001 1442.0500000000002C946.3000000000001 1442.0500000000002 945.95 1440.0600000000002 945.7900000000001 1439.65C945.4900000000001 1438.8400000000001 945.3600000000001 1438.0300000000002 945.1200000000001 1437.19C944.8800000000001 1436.3600000000001 944.5200000000001 1435.13 944.2600000000001 1434.13C943.9000000000001 1434.47 943.7600000000001 1436.7 943.69 1437.24C943.5600000000001 1438.23 943.62 1439.22 943.69 1440.2C943.72 1440.69 944.0500000000001 1442.6100000000001 944.1700000000001 1443.0800000000002C944.4200000000001 1444.0200000000002 945.1200000000001 1446.0400000000002 945.58 1446.9600000000003C945.98 1447.7600000000002 940.86 1445.4800000000002 939.23 1443.3900000000003C938 1441.8000000000004 933.97 1438.8000000000004 929.72 1433.1500000000003C929.1700000000001 1432.4100000000003 927.53 1430.8400000000004 927.45 1429.8000000000004C926.32 1431.1800000000005 928.36 1435.6100000000004 928.87 1436.5500000000004C929.38 1437.4900000000005 930.58 1438.7900000000004 931.27 1439.5800000000004C931.61 1439.9800000000005 934.4399999999999 1443.3400000000004 934.4399999999999 1443.3400000000004C932.79 1442.4600000000003 931.4999999999999 1441.9000000000003 929.2299999999999 1440.5600000000004C928.6099999999999 1440.1900000000005 928.0899999999999 1439.8400000000004 927.6199999999999 1439.5100000000004C924.9899999999999 1436.4700000000005 922.2099999999999 1431.1700000000005 921.1699999999998 1429.3500000000004C920.1199999999999 1427.4900000000005 919.1799999999998 1425.6500000000003 918.6499999999999 1423.7200000000003C918.5399999999998 1423.3000000000002 918.3499999999999 1421.2200000000003 918.2899999999998 1420.7000000000003C918.2099999999998 1419.8500000000004 918.3499999999998 1418.8100000000002 919.1599999999999 1417.7700000000002C918.8599999999999 1417.7600000000002 918.5499999999998 1417.88 918.2699999999999 1418.0500000000002C917.9999999999999 1418.2200000000003 917.7499999999999 1418.4500000000003 917.5499999999998 1418.7100000000003C917.1399999999999 1419.2200000000003 916.8499999999998 1419.7900000000002 916.6199999999999 1420.3600000000004C916.3899999999999 1420.9400000000003 916.2199999999999 1421.5500000000004 916.0999999999999 1422.1600000000003C916.04 1422.4600000000003 915.92 1423.7300000000002 915.93 1424.0800000000004C915.9799999999999 1425.3600000000004 916.2399999999999 1426.5900000000004 916.63 1427.7500000000005C916.9 1428.5700000000004 916.9399999999999 1429.1900000000005 917.32 1429.9300000000005C916.45 1428.9600000000005 914.12 1426.3800000000006 913.46 1424.8300000000006C913.24 1424.3100000000006 912.95 1422.4500000000005 912.98 1420.8000000000006C913.27 1419.3100000000006 913.6 1418.1500000000005 913.97 1416.5000000000007C914.0500000000001 1416.1800000000007 915.6800000000001 1409.1500000000008 915.97 1408.9300000000007C916.1 1408.8300000000008 917.9100000000001 1405.5000000000007 918.0500000000001 1405.3700000000008C918.0500000000001 1405.3700000000008 919.4300000000001 1403.7100000000007 919.61 1403.4000000000008C919.77 1403.0800000000008 922.33 1399.4600000000007 922.52 1398.8300000000008C922.92 1397.480000000001 922.15 1397.1300000000008 922.15 1397.1300000000008C921.62 1396.9000000000008 921.41 1396.9800000000007 921.16 1397.020000000001C920.1999999999999 1397.430000000001 917.39 1400.5900000000008 917.39 1400.5900000000008C916.18 1401.9400000000007 915.13 1402.5700000000008 915.13 1402.5700000000008C914.1 1403.270000000001 912.46 1402.5300000000009 911.8 1401.1700000000008C911.5899999999999 1400.4400000000007 911.52 1399.7700000000007 911.53 1399.1600000000008C911.5799999999999 1397.2200000000007 911.87 1395.4900000000007 912.2099999999999 1394.0500000000009C912.2499999999999 1393.8900000000008 912.9899999999999 1390.450000000001 912.8899999999999 1389.000000000001C912.6599999999999 1389.0300000000009 911.1699999999998 1391.0900000000008 910.7499999999999 1392.1200000000008C910.7499999999999 1392.1200000000008 908.9999999999999 1395.6900000000007 908.8999999999999 1397.9100000000008C908.6099999999999 1399.6500000000008 908.7699999999999 1401.6500000000008 909.1399999999999 1403.3000000000009C909.5299999999999 1404.940000000001 910.0599999999998 1405.690000000001 910.1599999999999 1407.220000000001C910.2599999999999 1408.8000000000009 910.3199999999998 1411.400000000001 910.2599999999999 1413.0700000000008C910.1899999999998 1414.760000000001 910.1499999999999 1415.750000000001 909.3799999999999 1417.3600000000008C909.3799999999999 1417.3600000000008 908.7199999999999 1419.3400000000008 908.5599999999998 1420.020000000001C908.0199999999999 1422.3600000000008 905.2999999999998 1419.680000000001 905.2999999999998 1419.680000000001C903.8599999999998 1418.0500000000009 902.9399999999998 1416.980000000001 901.8899999999999 1415.080000000001C901.3899999999999 1413.7100000000012 901.4799999999999 1412.900000000001 901.4399999999998 1412.150000000001C901.3899999999999 1410.120000000001 901.9299999999998 1405.970000000001 902.1799999999998 1403.930000000001C902.3999999999999 1401.980000000001 902.5299999999999 1396.600000000001 902.2499999999999 1392.660000000001C902.2199999999999 1392.350000000001 902.2599999999999 1390.950000000001 902.0499999999998 1390.360000000001C901.7399999999999 1390.420000000001 898.7699999999999 1400.710000000001 898.4999999999999 1402.960000000001C898.2499999999999 1405.0300000000009 897.2099999999999 1408.8300000000008 897.1599999999999 1411.0800000000008C894.3199999999998 1408.980000000001 893.6299999999999 1406.6400000000008 893.6299999999999 1406.6400000000008C892.4699999999999 1407.1700000000008 893.1899999999998 1410.4600000000007 893.5699999999999 1411.6000000000008C894.7399999999999 1415.020000000001 898.05 1419.0800000000008 898.17 1419.260000000001C899.49 1421.260000000001 900.8299999999999 1423.1000000000008 902.3 1424.770000000001C902.54 1425.0400000000009 907.5899999999999 1430.5300000000009 908.31 1431.0500000000009C909.1199999999999 1431.6400000000008 915.25 1437.740000000001 917.6999999999999 1439.520000000001C919.4699999999999 1440.8200000000008 930.8299999999999 1447.8200000000008 936.3399999999999 1449.730000000001C938.29 1450.410000000001 943.5999999999999 1453.400000000001 944.16 1453.740000000001C945.02 1454.2900000000009 947.1899999999999 1456.0800000000008 947.38 1456.660000000001L947.52 1456.710000000001L948.23 1457.000000000001C948.23 1457.000000000001 953.1 1453.960000000001 953 1452.910000000001C953 1452.830000000001 952.97 1452.730000000001 952.95 1452.630000000001C952.69 1451.570000000001 951.63 1450.050000000001 951.2 1449.250000000001ZM1027.37 1406.64C1028.53 1407.18 1027.81 1410.45 1027.4199999999998 1411.6000000000001C1026.2699999999998 1415.0400000000002 1022.9699999999998 1419.1000000000001 1022.8499999999998 1419.2700000000002C1021.5399999999998 1421.2600000000002 1020.2099999999998 1423.1000000000001 1018.7399999999998 1424.7700000000002C1018.4999999999998 1425.0400000000002 1013.4799999999998 1430.5300000000002 1012.7799999999997 1431.0500000000002C1011.9799999999998 1431.64 1005.8799999999998 1437.7400000000002 1003.4399999999997 1439.5200000000002C1001.6899999999997 1440.8200000000002 990.4099999999997 1447.8300000000002 984.9299999999997 1449.7400000000002C982.9899999999997 1450.4100000000003 977.7199999999997 1453.3900000000003 977.1599999999997 1453.7400000000002C976.3099999999997 1454.2800000000002 974.1499999999997 1456.0700000000002 973.9599999999997 1456.6600000000003L973.8299999999997 1456.7100000000003L973.1199999999997 1457.0000000000002C973.1199999999997 1457.0000000000002 967.8999999999996 1454.3500000000001 967.9999999999997 1453.3000000000002C968.0199999999996 1453.15 968.0699999999997 1452.9700000000003 968.1399999999996 1452.7900000000002C968.5399999999996 1451.66 969.7799999999996 1449.9900000000002 970.1699999999996 1449.2400000000002C970.4099999999996 1448.7900000000002 972.6999999999996 1446.5500000000002 972.9399999999996 1446.1900000000003C973.4099999999996 1445.4600000000003 973.6999999999996 1445.0100000000002 974.0399999999996 1444.3200000000004C974.3899999999996 1443.6100000000004 974.7199999999996 1442.8300000000004 975.0499999999996 1442.0400000000004C975.0499999999996 1442.0400000000004 975.3999999999996 1440.0500000000004 975.5499999999996 1439.6500000000003C975.8499999999996 1438.8400000000004 975.9799999999996 1438.0200000000002 976.2199999999996 1437.1800000000003C976.4599999999996 1436.3700000000003 976.8099999999996 1435.1400000000003 977.0799999999996 1434.1200000000003C977.4299999999996 1434.4700000000003 977.5799999999996 1436.7000000000003 977.6399999999995 1437.2300000000002C977.7699999999995 1438.2300000000002 977.7199999999996 1439.2200000000003 977.6499999999995 1440.1900000000003C977.6199999999995 1440.6800000000003 977.2899999999995 1442.6000000000004 977.1699999999995 1443.0800000000004C976.9199999999995 1444.0200000000004 976.2199999999995 1446.0300000000004 975.7699999999995 1446.9500000000003C975.3699999999995 1447.7500000000002 980.4599999999996 1445.4700000000003 982.0799999999995 1443.3800000000003C983.2999999999995 1441.7900000000004 987.2999999999995 1438.7900000000004 991.5199999999995 1433.1400000000003C992.0699999999995 1432.4200000000003 993.7099999999996 1430.8300000000004 993.7899999999995 1429.8000000000004C994.8999999999995 1431.1900000000005 992.8799999999995 1435.6200000000003 992.3699999999995 1436.5500000000004C991.8599999999996 1437.4800000000005 990.6599999999995 1438.7700000000004 989.9799999999996 1439.5700000000004C989.6399999999995 1439.9700000000005 986.8299999999996 1443.3300000000004 986.8299999999996 1443.3300000000004C988.4599999999996 1442.4600000000005 989.7399999999996 1441.8900000000003 991.9999999999995 1440.5500000000004C992.6199999999995 1440.1800000000005 993.1299999999995 1439.8400000000004 993.5999999999996 1439.5000000000005C996.2199999999996 1436.4700000000005 998.9799999999996 1431.1800000000005 999.9999999999995 1429.3400000000004C1001.0499999999995 1427.4800000000005 1001.9899999999996 1425.6400000000003 1002.5099999999995 1423.7100000000003C1002.6199999999995 1423.2900000000002 1002.8099999999995 1421.2200000000003 1002.8599999999996 1420.7000000000003C1002.9499999999996 1419.8400000000004 1002.8099999999996 1418.8000000000002 1001.9899999999996 1417.7700000000002C1002.2999999999995 1417.7600000000002 1002.6099999999996 1417.88 1002.8899999999995 1418.0500000000002C1003.1599999999995 1418.2300000000002 1003.3999999999995 1418.4500000000003 1003.5999999999996 1418.7100000000003C1004.0099999999995 1419.2100000000003 1004.2999999999996 1419.7800000000002 1004.5299999999995 1420.3600000000004C1004.7499999999995 1420.9500000000003 1004.9299999999995 1421.5400000000004 1005.0299999999995 1422.1500000000003C1005.0999999999996 1422.4600000000003 1005.2299999999996 1423.7200000000003 1005.2099999999995 1424.0700000000004C1005.1799999999995 1425.3400000000004 1004.9099999999995 1426.5700000000004 1004.5199999999994 1427.7500000000005C1004.2599999999994 1428.5600000000004 1004.2099999999995 1429.1800000000005 1003.8299999999994 1429.9300000000005C1004.6999999999994 1428.9500000000005 1007.0199999999994 1426.3800000000006 1007.6699999999994 1424.8200000000006C1007.8899999999994 1424.3100000000006 1008.1799999999994 1422.4400000000005 1008.1399999999994 1420.8000000000006C1007.8499999999995 1419.3000000000006 1007.5299999999994 1418.1500000000005 1007.1599999999994 1416.5000000000007C1007.0799999999994 1416.1800000000007 1005.4499999999994 1409.1500000000008 1005.1799999999994 1408.9300000000007C1005.0399999999994 1408.8200000000008 1003.2499999999994 1405.5000000000007 1003.0999999999993 1405.3700000000008C1003.0999999999993 1405.3700000000008 1001.7399999999993 1403.7100000000007 1001.5599999999994 1403.4000000000008C1001.3899999999994 1403.0800000000008 998.8399999999993 1399.4600000000007 998.6599999999994 1398.8300000000008C998.2599999999994 1397.480000000001 999.0299999999994 1397.1300000000008 999.0299999999994 1397.1300000000008C999.5599999999994 1396.9000000000008 999.7599999999994 1396.9800000000007 1000.0099999999994 1397.020000000001C1000.9699999999995 1397.430000000001 1003.7499999999994 1400.5900000000008 1003.7499999999994 1400.5900000000008C1004.9399999999995 1401.9300000000007 1005.9999999999994 1402.5700000000008 1005.9999999999994 1402.5700000000008C1007.0299999999994 1403.270000000001 1008.6399999999994 1402.5300000000009 1009.2999999999994 1401.1600000000008C1009.5199999999994 1400.4400000000007 1009.5799999999994 1399.7700000000007 1009.5699999999994 1399.1600000000008C1009.5199999999994 1397.2100000000007 1009.2399999999993 1395.4900000000007 1008.8899999999994 1394.0500000000009C1008.8499999999995 1393.8800000000008 1008.1199999999994 1390.440000000001 1008.2199999999995 1389.000000000001C1008.4499999999995 1389.0300000000009 1009.9199999999995 1391.1000000000008 1010.3499999999995 1392.1200000000008C1010.3499999999995 1392.1200000000008 1012.0699999999995 1395.6900000000007 1012.1699999999995 1397.9100000000008C1012.4599999999995 1399.6400000000008 1012.2999999999995 1401.6400000000008 1011.9299999999995 1403.3000000000009C1011.5499999999995 1404.950000000001 1011.0099999999995 1405.700000000001 1010.9099999999995 1407.220000000001C1010.8199999999995 1408.8000000000009 1010.7599999999995 1411.390000000001 1010.8199999999995 1413.0700000000008C1010.8899999999995 1414.750000000001 1010.9299999999995 1415.750000000001 1011.6899999999995 1417.3500000000008C1011.6899999999995 1417.3500000000008 1012.3499999999995 1419.3400000000008 1012.5099999999995 1420.020000000001C1013.0599999999995 1422.3500000000008 1015.7499999999995 1419.670000000001 1015.7499999999995 1419.670000000001C1017.1899999999996 1418.050000000001 1018.0999999999996 1416.980000000001 1019.1499999999995 1415.080000000001C1019.6399999999995 1413.7200000000012 1019.5699999999995 1412.900000000001 1019.5899999999996 1412.150000000001C1019.6399999999995 1410.110000000001 1019.1099999999996 1405.970000000001 1018.8599999999996 1403.930000000001C1018.6399999999995 1401.970000000001 1018.5199999999995 1396.600000000001 1018.7999999999996 1392.660000000001C1018.8199999999996 1392.350000000001 1018.7899999999996 1390.950000000001 1018.9899999999997 1390.360000000001C1019.2999999999996 1390.430000000001 1022.2499999999997 1400.720000000001 1022.5199999999996 1402.960000000001C1022.7699999999996 1405.020000000001 1023.8099999999996 1408.8300000000008 1023.8599999999997 1411.0800000000008C1026.6799999999996 1408.980000000001 1027.3699999999997 1406.6400000000008 1027.3699999999997 1406.6400000000008Z " fill="url(#SvgjsLinearGradient1008)" transform="matrix(1,0,0,1,-892,-1389)"></path></svg>