<svg xmlns="http://www.w3.org/2000/svg" viewBox="0 0 64 64"><title>Artboard-2</title><g id="University"><rect x="1" y="25" width="62" height="38" style="fill:#fff"/><polygon points="21 53 21 19.88 32 16 43 19.88 43 53 21 53" style="fill:#9ac3f4"/><rect x="26" y="39" width="12" height="14" style="fill:#fff"/><circle cx="32" cy="28" r="6" style="fill:#fff"/><rect x="47" y="29" width="4" height="4" style="fill:#9ac3f4"/><rect x="55" y="29" width="4" height="4" style="fill:#9ac3f4"/><rect x="47" y="37" width="4" height="4" style="fill:#9ac3f4"/><rect x="55" y="37" width="4" height="4" style="fill:#9ac3f4"/><rect x="47" y="45" width="4" height="4" style="fill:#9ac3f4"/><rect x="55" y="45" width="4" height="4" style="fill:#9ac3f4"/><rect x="55" y="53" width="4" height="4" style="fill:#9ac3f4"/><rect x="13" y="29" width="4" height="4" style="fill:#9ac3f4"/><rect x="5" y="29" width="4" height="4" style="fill:#9ac3f4"/><rect x="13" y="37" width="4" height="4" style="fill:#9ac3f4"/><rect x="5" y="37" width="4" height="4" style="fill:#9ac3f4"/><rect x="13" y="45" width="4" height="4" style="fill:#9ac3f4"/><rect x="5" y="45" width="4" height="4" style="fill:#9ac3f4"/><rect x="5" y="53" width="4" height="4" style="fill:#9ac3f4"/><polygon points="32 16 16.541 21.459 15 16 32 10 49 16 47.46 21.46 32 16" style="fill:#fff"/><rect x="32" y="1" width="7" height="5" style="fill:#9ac3f4"/><rect x="17" y="53" width="30" height="5" style="fill:#fff"/><rect x="13" y="59" width="38" height="4" style="fill:#9ac3f4"/><path d="M32,35a7,7,0,1,0-7-7A7.0078,7.0078,0,0,0,32,35Zm0-12a5,5,0,1,1-5,5A5.0059,5.0059,0,0,1,32,23Z" style="fill:#2f7ded"/><path d="M32.707,30.1211a1,1,0,1,0,1.4141-1.4141L33,27.5859V26a1,1,0,0,0-2,0v2a1,1,0,0,0,.293.707Z" style="fill:#2f7ded"/><path d="M63,24H44V21.2985l3.127,1.1043a1,1,0,0,0,1.2954-.6714l1.54-5.46a1,1,0,0,0-.6294-1.2144L33,9.2925V7h6a1,1,0,0,0,1-1V1a1,1,0,0,0-1-1H32a1,1,0,0,0-1,1V9.2925L14.667,15.0571a1,1,0,0,0-.6294,1.2144l1.54,5.46a1,1,0,0,0,1.2954.6714L20,21.2985V24H1a1,1,0,0,0-1,1V63a1,1,0,0,0,1,1H63a1,1,0,0,0,1-1V25A1,1,0,0,0,63,24ZM46,57H18V54H46ZM37,40V52H33V40ZM31,52H27V40h4ZM33,2h5V5H33ZM16.2168,16.6309,32,11.0605l15.7832,5.57-.9961,3.5307c-.6564-.2318-2.7788-.9862-14.0583-4.9647A2.3683,2.3683,0,0,0,32,15a2.3683,2.3683,0,0,0-.7288.1969c-8.218,2.8986-13.158,4.6468-14.0583,4.9647ZM32,17.0605l10,3.5317V52H39V39a1,1,0,0,0-1-1H26a1,1,0,0,0-1,1V52H22V20.5922ZM2,26H20V52H17a1,1,0,0,0-1,1v4H13a1,1,0,0,0-1,1v4H2ZM14,62V59H50v3Zm48,0H52V58a1,1,0,0,0-1-1H48V53a1,1,0,0,0-1-1H44V26H62Z" style="fill:#2f7ded"/><path d="M47,34h4a1,1,0,0,0,1-1V29a1,1,0,0,0-1-1H47a1,1,0,0,0-1,1v4A1,1,0,0,0,47,34Zm1-4h2v2H48Z" style="fill:#2f7ded"/><path d="M55,34h4a1,1,0,0,0,1-1V29a1,1,0,0,0-1-1H55a1,1,0,0,0-1,1v4A1,1,0,0,0,55,34Zm1-4h2v2H56Z" style="fill:#2f7ded"/><path d="M47,42h4a1,1,0,0,0,1-1V37a1,1,0,0,0-1-1H47a1,1,0,0,0-1,1v4A1,1,0,0,0,47,42Zm1-4h2v2H48Z" style="fill:#2f7ded"/><path d="M55,42h4a1,1,0,0,0,1-1V37a1,1,0,0,0-1-1H55a1,1,0,0,0-1,1v4A1,1,0,0,0,55,42Zm1-4h2v2H56Z" style="fill:#2f7ded"/><path d="M47,50h4a1,1,0,0,0,1-1V45a1,1,0,0,0-1-1H47a1,1,0,0,0-1,1v4A1,1,0,0,0,47,50Zm1-4h2v2H48Z" style="fill:#2f7ded"/><path d="M55,50h4a1,1,0,0,0,1-1V45a1,1,0,0,0-1-1H55a1,1,0,0,0-1,1v4A1,1,0,0,0,55,50Zm1-4h2v2H56Z" style="fill:#2f7ded"/><path d="M55,58h4a1,1,0,0,0,1-1V53a1,1,0,0,0-1-1H55a1,1,0,0,0-1,1v4A1,1,0,0,0,55,58Zm1-4h2v2H56Z" style="fill:#2f7ded"/><path d="M13,34h4a1,1,0,0,0,1-1V29a1,1,0,0,0-1-1H13a1,1,0,0,0-1,1v4A1,1,0,0,0,13,34Zm1-4h2v2H14Z" style="fill:#2f7ded"/><path d="M9,28H5a1,1,0,0,0-1,1v4a1,1,0,0,0,1,1H9a1,1,0,0,0,1-1V29A1,1,0,0,0,9,28ZM8,32H6V30H8Z" style="fill:#2f7ded"/><path d="M13,42h4a1,1,0,0,0,1-1V37a1,1,0,0,0-1-1H13a1,1,0,0,0-1,1v4A1,1,0,0,0,13,42Zm1-4h2v2H14Z" style="fill:#2f7ded"/><path d="M9,36H5a1,1,0,0,0-1,1v4a1,1,0,0,0,1,1H9a1,1,0,0,0,1-1V37A1,1,0,0,0,9,36ZM8,40H6V38H8Z" style="fill:#2f7ded"/><path d="M13,50h4a1,1,0,0,0,1-1V45a1,1,0,0,0-1-1H13a1,1,0,0,0-1,1v4A1,1,0,0,0,13,50Zm1-4h2v2H14Z" style="fill:#2f7ded"/><path d="M9,44H5a1,1,0,0,0-1,1v4a1,1,0,0,0,1,1H9a1,1,0,0,0,1-1V45A1,1,0,0,0,9,44ZM8,48H6V46H8Z" style="fill:#2f7ded"/><path d="M9,52H5a1,1,0,0,0-1,1v4a1,1,0,0,0,1,1H9a1,1,0,0,0,1-1V53A1,1,0,0,0,9,52ZM8,56H6V54H8Z" style="fill:#2f7ded"/></g></svg>