<svg id="Layer_1" data-name="Layer 1" xmlns="http://www.w3.org/2000/svg" viewBox="0 0 63.751 63.755"><defs><style>.cls-1{fill-rule:evenodd;}</style></defs><title>4</title><path class="cls-1" d="M16.877,41.47l14.16,7.082a1.885,1.885,0,0,0,1.676,0l14.16-7.082,10.809,5.4-25.809,12.9L6.065,46.872Zm0-15,14.16,7.082a1.885,1.885,0,0,0,1.676,0l14.16-7.082,10.809,5.4-25.809,12.9-25.8-12.9Zm15-22.5,25.809,12.9-25.809,12.9L6.068,16.872ZM31.807,0a1.9,1.9,0,0,0-.77.2l-30,15a1.875,1.875,0,0,0,0,3.352l11.645,5.824L1.037,30.2a1.876,1.876,0,0,0,0,3.356L12.682,39.38,1.037,45.2a1.876,1.876,0,0,0,0,3.356l30,15a1.892,1.892,0,0,0,1.676,0l30-15a1.876,1.876,0,0,0,0-3.356L51.068,39.38l11.645-5.824a1.876,1.876,0,0,0,0-3.356L51.068,24.376l11.645-5.824a1.875,1.875,0,0,0,0-3.352l-30-15A1.925,1.925,0,0,0,31.807,0Z"/></svg>